# xmcd CD database file
#
# Track frame offsets:
#	150
#	13627
#	30570
#	48685
#	66747
#	84952
#	97625
#	117987
#	133560
#	147445
#
# Disc length: 2226 seconds
#
# Revision: 0
# Processed by: cddbd v1.5.1PL0 Copyright (c) Steve Scherf et al.
# Submitted via: CDex 1.51
#
DISCID=8408b00a
DTITLE=Spike - Blue Eyed Soul
DYEAR=1997
DGENRE=Hard Rock
TTITLE0=Only Want To Give
TTITLE1=Be Here Now
TTITLE2=That's Me
TTITLE3=Thrill Of It
TTITLE4=Not Enough
TTITLE5=I'm Gone
TTITLE6=You Are The One
TTITLE7=Heaven
TTITLE8=Like A Women
TTITLE9=Start Cryin
EXTD=YEAR: 1997
EXTT0=
EXTT1=
EXTT2=
EXTT3=
EXTT4=
EXTT5=
EXTT6=
EXTT7=
EXTT8=
EXTT9=
PLAYORDER=
